<?xml version="1.0" encoding="UTF-8" standalone="no" ?>
<!DOCTYPE svg PUBLIC "-//W3C//DTD SVG 1.1//EN" "http://www.w3.org/Graphics/SVG/1.1/DTD/svg11.dtd">
<svg xmlns="http://www.w3.org/2000/svg" xmlns:xlink="http://www.w3.org/1999/xlink" version="1.1" width="1080" height="1080" viewBox="0 0 1080 1080" xml:space="preserve">
<desc>Created with Fabric.js 5.2.4</desc>
<defs>
</defs>
<g transform="matrix(1 0 0 1 540 540)" id="20c59f63-92fc-46d6-8f8c-8785c0db01ff"  >
<rect style="stroke: none; stroke-width: 1; stroke-dasharray: none; stroke-linecap: butt; stroke-dashoffset: 0; stroke-linejoin: miter; stroke-miterlimit: 4; fill: rgb(255,255,255); fill-rule: nonzero; opacity: 1; visibility: hidden;" vector-effect="non-scaling-stroke"  x="-540" y="-540" rx="0" ry="0" width="1080" height="1080" />
</g>
<g transform="matrix(1 0 0 1 540 540)" id="a14ef49e-2cbb-4cf3-b616-6d0ae4aaa9ac"  >
</g>
<g transform="matrix(45 0 0 45 540 540)"  >
<path style="stroke: none; stroke-width: 1; stroke-dasharray: none; stroke-linecap: butt; stroke-dashoffset: 0; stroke-linejoin: miter; stroke-miterlimit: 4; fill: rgb(0,0,0); fill-rule: nonzero; opacity: 1;"  transform=" translate(-12, -12)" d="M 18.29 5.706 C 18.02651017103362 5.442502228945195 17.669136505618518 5.294470054908551 17.296499999999998 5.294470054908551 C 16.92386349438148 5.294470054908551 16.566489828966375 5.442502228945195 16.302999999999997 5.706 L 4.716 17.296 L 6.04 14.645999999999999 L 3.39 11.997 L 6.702 8.686 L 9.352 11.336 L 11.338000000000001 9.348 L 7.6960000000000015 5.706000000000001 C 7.4325101710336225 5.442502228945197 7.075136505618522 5.294470054908553 6.7025000000000015 5.294470054908553 C 6.329863494381481 5.294470054908553 5.97248982896638 5.442502228945197 5.709000000000001 5.706000000000001 L 0.411 11.004 C 0.14725691877325459 11.26735956294786 -0.0009446840019455283 11.62478204726487 -0.0009446840019455283 11.997499999999999 C -0.0009446840019455283 12.370217952735128 0.14725691877325447 12.72764043705214 0.411 12.991 L 4.715999999999999 17.295 L 5.709 18.288 C 5.972489828966379 18.551497771054805 6.329863494381479 18.69952994509145 6.7025 18.69952994509145 C 7.07513650561852 18.69952994509145 7.432510171033621 18.551497771054805 7.696 18.288 L 19.285 6.7 L 18.292 5.706 Z M 17.958 9.353 L 20.607999999999997 12.003 L 16.301999999999996 16.308 C 15.753581243418019 16.856418756581977 15.753581243418019 17.745581243418023 16.301999999999996 18.294 C 16.850418756581973 18.842418756581978 17.73958124341802 18.842418756581978 18.287999999999997 18.294 L 23.586999999999996 12.996 C 23.850743081226742 12.73264043705214 23.99894468400194 12.37521795273513 23.99894468400194 12.002500000000001 C 23.99894468400194 11.629782047264872 23.850743081226742 11.27235956294786 23.586999999999996 11.009 L 19.281999999999996 6.705 L 17.957999999999995 9.353 Z" stroke-linecap="round" />
</g>
<g transform="matrix(2.72 2.72 -2.23 2.23 717.89 723.72)" id="953480ea-53ef-4011-9944-772f9a30f075"  >
<rect style="stroke: rgb(0,0,0); stroke-width: 0; stroke-dasharray: none; stroke-linecap: butt; stroke-dashoffset: 0; stroke-linejoin: miter; stroke-miterlimit: 4; fill: rgb(0,0,0); fill-rule: nonzero; opacity: 1;" vector-effect="non-scaling-stroke"  x="-37.46" y="-19.415" rx="0" ry="0" width="74.92" height="38.83" />
</g>
</svg>